<svg xmlns="http://www.w3.org/2000/svg" width="930" height="660" viewBox="0 0 930 660" role="img" font-family="Arial, sans-serif"><title>Сделки и платежи CRM; расчёт и предложенный журнал</title><defs><marker id="arrow" markerWidth="10" markerHeight="10" refX="8" refY="3" orient="auto" markerUnits="strokeWidth"><path d="M0,0 L0,6 L9,3 z" fill="#526779"/></marker></defs><rect width="100%" height="100%" fill="white"/><text text-anchor="middle" fill="#202d3a" font-size="22" x="465.0" y="36"><tspan x="465.0" dy="0">Сделки и платежи CRM; расчёт и предложенный журнал</tspan></text><polyline points="260,155 305.0,155 305.0,155 350,155" fill="none" stroke="#526779" stroke-width="1.4" marker-end="url(#arrow)"/><text text-anchor="middle" fill="#202d3a" font-size="12" x="305.0" y="143"><tspan x="305.0" dy="0">1 → 0..N</tspan></text><polyline points="570,155 615.0,155 615.0,155 660,155" fill="none" stroke="#526779" stroke-width="1.4" marker-end="url(#arrow)"/><text text-anchor="middle" fill="#202d3a" font-size="12" x="615.0" y="143"><tspan x="615.0" dy="0">1 → 0..N</tspan></text><polyline points="770,210 770.0,210 770.0,290 770,290" fill="none" stroke="#526779" stroke-width="1.4" marker-end="url(#arrow)"/><text text-anchor="middle" fill="#202d3a" font-size="12" x="840" y="250.0"><tspan x="840" dy="0">1 → 1 в отчёте</tspan></text><polyline points="260,345 300,345 300,240 610,240 610,180 660,180" fill="none" stroke="#526779" stroke-width="1.4" marker-end="url(#arrow)"/><text text-anchor="middle" fill="#202d3a" font-size="12" x="460.0" y="333"><tspan x="460.0" dy="0">1 → 0..N</tspan></text><polyline points="460,210 460.0,210 460.0,490 460,490" fill="none" stroke="#526779" stroke-width="1.4" marker-end="url(#arrow)"/><text text-anchor="middle" fill="#202d3a" font-size="12" x="530" y="350.0"><tspan x="530" dy="0">1 → 0..N (проект)</tspan></text><polyline points="570,545 635,545 635,190 660,190" fill="none" stroke="#526779" stroke-width="1.4" marker-end="url(#arrow)"/><text text-anchor="middle" fill="#202d3a" font-size="12" x="615.0" y="524"><tspan x="615.0" dy="0">Источник /</tspan><tspan x="615.0" dy="18">получатель</tspan></text><rect x="40" y="100" width="220" height="110" rx="5" fill="white" stroke="#475569"/><path d="M40 135 H260" stroke="#ccd4de"/><text text-anchor="middle" fill="#202d3a" font-size="12" x="150" y="122"><tspan x="150" dy="0">Контакт CRM</tspan></text><text x="52" y="157" font-size="12" fill="#334155">ID</text><text x="52" y="176" font-size="12" fill="#334155">Имя клиента</text><text x="52" y="195" font-size="12" fill="#334155">Связь через CONTACT_ID</text><rect x="350" y="100" width="220" height="110" rx="5" fill="white" stroke="#475569"/><path d="M350 135 H570" stroke="#ccd4de"/><text text-anchor="middle" fill="#202d3a" font-size="12" x="460" y="122"><tspan x="460" dy="0">Сделка — договор</tspan></text><text x="362" y="157" font-size="12" fill="#334155">ID / CONTACT_ID</text><text x="362" y="176" font-size="12" fill="#334155">Стоимость ДДУ / валюта</text><text x="362" y="195" font-size="12" fill="#334155">Формат оплаты</text><rect x="660" y="100" width="220" height="110" rx="5" fill="white" stroke="#475569"/><path d="M660 135 H880" stroke="#ccd4de"/><text text-anchor="middle" fill="#202d3a" font-size="12" x="770" y="122"><tspan x="770" dy="0">Карточка рассрочки</tspan></text><text x="672" y="157" font-size="12" fill="#334155">id / parentId2</text><text x="672" y="176" font-size="12" fill="#334155">План и факт; даты</text><text x="672" y="195" font-size="12" fill="#334155">stageId / assignedById</text><rect x="660" y="290" width="220" height="110" rx="5" fill="white" stroke="#475569"/><path d="M660 325 H880" stroke="#ccd4de"/><text text-anchor="middle" fill="#202d3a" font-size="12" x="770" y="312"><tspan x="770" dy="0">Строка отчёта в памяти</tspan></text><text x="672" y="347" font-size="12" fill="#334155">remaining / status</text><text x="672" y="366" font-size="12" fill="#334155">overpaymentIn / Out</text><text x="672" y="385" font-size="12" fill="#334155">crmMismatch</text><rect x="350" y="490" width="220" height="110" rx="5" fill="white" stroke="#475569" stroke-dasharray="6 4"/><path d="M350 525 H570" stroke="#ccd4de"/><text text-anchor="middle" fill="#202d3a" font-size="12" x="460" y="512"><tspan x="460" dy="0">Операция зачёта — проект</tspan></text><text x="362" y="547" font-size="12" fill="#334155">source_id / target_id / amount</text><text x="362" y="566" font-size="12" fill="#334155">operation_id / status</text><text x="362" y="585" font-size="12" fill="#334155">actor / date / comment</text><rect x="40" y="290" width="220" height="110" rx="5" fill="white" stroke="#475569"/><path d="M40 325 H260" stroke="#ccd4de"/><text text-anchor="middle" fill="#202d3a" font-size="12" x="150" y="312"><tspan x="150" dy="0">Сотрудник Bitrix24</tspan></text><text x="52" y="347" font-size="12" fill="#334155">ID</text><text x="52" y="366" font-size="12" fill="#334155">Ответственный по карточке</text><text x="52" y="385" font-size="12" fill="#334155">Роль РОП — для доработки</text></svg>